<svg width="53" height="52" viewBox="0 0 53 52" fill="none" xmlns="http://www.w3.org/2000/svg">
<path d="M1 20C1 8.9543 9.95431 0 21 0H53V32C53 43.0457 44.0457 52 33 52H21C9.9543 52 1 43.0457 1 32V20Z" fill="url(#paint0_linear_19_32)"/>
<path d="M1 20C1 8.95431 9.95431 0 21 0H53V30H1V20Z" fill="#EA4C4C"/>
<path d="M0 23C0 21.8954 0.895431 21 2 21H53V30H2C0.895429 30 0 29.1046 0 28V23Z" fill="#252525"/>
<rect x="18.36" y="17.01" width="17.28" height="17.28" rx="8.64" fill="#252525"/>
<rect x="20.79" y="19.44" width="12.42" height="12.42" rx="6.21" fill="#D8D8D8"/>
<defs>
<linearGradient id="paint0_linear_19_32" x1="53" y1="0" x2="1" y2="52" gradientUnits="userSpaceOnUse">
<stop offset="0.270833" stop-color="#D7D7D7"/>
<stop offset="0.8125" stop-color="#888888"/>
</linearGradient>
</defs>
</svg>
