<svg width="805" height="430" viewBox="0 0 805 430" fill="none" xmlns="http://www.w3.org/2000/svg">
<path opacity="0.6" d="M0 50C0 22.3858 22.3858 0 50 0H200V430H50C22.3858 430 0 407.614 0 380V50Z" fill="url(#paint0_linear_12_4)"/>
<path opacity="0.6" d="M210 0H755C782.614 0 805 22.3858 805 50V430H210V0Z" fill="url(#paint1_linear_12_4)"/>
<g filter="url(#filter0_d_12_4)">
<path d="M31.92 95C31.6373 95 31.496 94.8587 31.496 94.576V85.112C31.496 84.8293 31.6373 84.688 31.92 84.688C32.0693 84.688 32.2133 84.7707 32.352 84.936L39.128 93.64H38.936V85.112C38.936 84.8293 39.0773 84.688 39.36 84.688C39.6373 84.688 39.776 84.8293 39.776 85.112V94.576C39.776 94.8587 39.6373 95 39.36 95C39.2053 95 39.0613 94.9173 38.928 94.752L32.144 86.048H32.336V94.576C32.336 94.8587 32.1973 95 31.92 95ZM43.5536 94.96C43.2976 94.848 43.2203 94.6613 43.3216 94.4L47.2896 85.016C47.375 84.7973 47.5323 84.688 47.7616 84.688H47.8096C48.0283 84.6933 48.183 84.8027 48.2736 85.016L52.2416 94.4C52.3483 94.6613 52.2736 94.848 52.0176 94.96C51.7563 95.0667 51.575 94.992 51.4736 94.736L50.4096 92.216H45.1696L44.1056 94.736C43.999 94.992 43.815 95.0667 43.5536 94.96ZM45.5136 91.376H50.0576L47.7856 86.016L45.5136 91.376ZM56.2138 95C55.9311 95 55.7898 94.8587 55.7898 94.576V85.112C55.7898 84.8293 55.9311 84.688 56.2138 84.688C56.4164 84.688 56.5764 84.7813 56.6938 84.968L60.6778 91.056L60.4858 91.08L64.4698 84.968C64.5818 84.7813 64.7498 84.688 64.9738 84.688C65.2244 84.688 65.3498 84.8293 65.3498 85.112V94.576C65.3498 94.8587 65.2111 95 64.9338 95C64.6511 95 64.5098 94.8587 64.5098 94.576V85.952L64.7578 86.032L61.0618 91.664C60.9444 91.8453 60.7764 91.936 60.5578 91.936C60.3658 91.936 60.2111 91.8453 60.0938 91.664L56.3978 86.032L56.6298 86.12V94.576C56.6298 94.8587 56.4911 95 56.2138 95ZM70.3606 95C70.078 95 69.9366 94.8587 69.9366 94.576V85.112C69.9366 84.8293 70.078 84.688 70.3606 84.688H76.3526C76.6353 84.688 76.7766 84.8293 76.7766 85.112C76.7766 85.3893 76.6353 85.528 76.3526 85.528H70.7766V89.36H74.4646C74.7473 89.36 74.8886 89.4987 74.8886 89.776C74.8886 90.0587 74.7473 90.2 74.4646 90.2H70.7766V94.16H76.3526C76.6353 94.16 76.7766 94.2987 76.7766 94.576C76.7766 94.8587 76.6353 95 76.3526 95H70.3606Z" fill="white"/>
</g>
<g filter="url(#filter1_d_12_4)">
<path d="M31.92 56C31.7867 56 31.6827 55.9627 31.608 55.888C31.5333 55.8133 31.496 55.7093 31.496 55.576V46.104C31.496 45.9707 31.5333 45.8667 31.608 45.792C31.6827 45.7173 31.7867 45.68 31.92 45.68C32.048 45.68 32.1493 45.7173 32.224 45.792C32.2987 45.8667 32.336 45.9707 32.336 46.104V55.576C32.336 55.7093 32.2987 55.8133 32.224 55.888C32.1493 55.9627 32.048 56 31.92 56ZM37.3481 56C37.0655 56 36.9241 55.8587 36.9241 55.576V46.112C36.9241 45.8293 37.0655 45.688 37.3481 45.688H41.2041C42.5321 45.688 43.4975 45.992 44.1001 46.6C44.7081 47.208 45.0121 48.176 45.0121 49.504V52.184C45.0121 53.512 44.7081 54.48 44.1001 55.088C43.4975 55.696 42.5321 56 41.2041 56H37.3481ZM37.7641 55.16H41.2041C41.9295 55.16 42.5081 55.064 42.9401 54.872C43.3775 54.68 43.6921 54.368 43.8841 53.936C44.0761 53.4987 44.1721 52.9147 44.1721 52.184V49.504C44.1721 48.7787 44.0761 48.2 43.8841 47.768C43.6921 47.3307 43.3775 47.016 42.9401 46.824C42.5081 46.6267 41.9295 46.528 41.2041 46.528H37.7641V55.16Z" fill="white"/>
</g>
<path d="M61.1293 55.1918C60.3963 55.1889 59.7656 55.0085 59.2372 54.6506C58.7116 54.2926 58.3068 53.7741 58.0227 53.0952C57.7415 52.4162 57.6023 51.5994 57.6051 50.6449C57.6051 49.6932 57.7457 48.8821 58.027 48.2116C58.3111 47.5412 58.7159 47.0312 59.2415 46.6818C59.7699 46.3295 60.3991 46.1534 61.1293 46.1534C61.8594 46.1534 62.4872 46.3295 63.0128 46.6818C63.5412 47.0341 63.9474 47.5455 64.2315 48.2159C64.5156 48.8835 64.6563 49.6932 64.6534 50.6449C64.6534 51.6023 64.5114 52.4205 64.2273 53.0994C63.946 53.7784 63.5426 54.2969 63.017 54.6548C62.4915 55.0128 61.8622 55.1918 61.1293 55.1918ZM61.1293 53.6619C61.6293 53.6619 62.0284 53.4105 62.3267 52.9077C62.625 52.4048 62.7727 51.6506 62.7699 50.6449C62.7699 49.983 62.7017 49.4318 62.5653 48.9915C62.4318 48.5511 62.2415 48.2202 61.9943 47.9986C61.75 47.777 61.4616 47.6662 61.1293 47.6662C60.6321 47.6662 60.2344 47.9148 59.9361 48.4119C59.6378 48.9091 59.4872 49.6534 59.4844 50.6449C59.4844 51.3153 59.5511 51.875 59.6847 52.3239C59.821 52.7699 60.0128 53.1051 60.2599 53.3295C60.5071 53.5511 60.7969 53.6619 61.1293 53.6619ZM70.966 46.2727V55H69.1208V48.0241H69.0697L67.0711 49.277V47.6406L69.2316 46.2727H70.966Z" fill="#EA4C4C"/>
<path d="M30.7585 117V108.273H34.2017C34.8636 108.273 35.4276 108.399 35.8935 108.652C36.3594 108.902 36.7145 109.25 36.9588 109.696C37.206 110.139 37.3295 110.651 37.3295 111.23C37.3295 111.81 37.2045 112.321 36.9545 112.764C36.7045 113.207 36.3423 113.553 35.8679 113.8C35.3963 114.047 34.8253 114.17 34.1548 114.17H31.9602V112.692H33.8565C34.2116 112.692 34.5043 112.631 34.7344 112.509C34.9673 112.384 35.1406 112.212 35.2543 111.993C35.3707 111.771 35.429 111.517 35.429 111.23C35.429 110.94 35.3707 110.687 35.2543 110.472C35.1406 110.253 34.9673 110.084 34.7344 109.964C34.5014 109.842 34.206 109.781 33.848 109.781H32.6037V117H30.7585ZM42.5459 117.128C41.8839 117.128 41.3115 116.987 40.8286 116.706C40.3484 116.422 39.9777 116.027 39.7163 115.521C39.455 115.013 39.3243 114.423 39.3243 113.753C39.3243 113.077 39.455 112.486 39.7163 111.98C39.9777 111.472 40.3484 111.077 40.8286 110.795C41.3115 110.511 41.8839 110.369 42.5459 110.369C43.2078 110.369 43.7788 110.511 44.2589 110.795C44.7419 111.077 45.1141 111.472 45.3754 111.98C45.6368 112.486 45.7675 113.077 45.7675 113.753C45.7675 114.423 45.6368 115.013 45.3754 115.521C45.1141 116.027 44.7419 116.422 44.2589 116.706C43.7788 116.987 43.2078 117.128 42.5459 117.128ZM42.5544 115.722C42.8555 115.722 43.107 115.636 43.3087 115.466C43.5104 115.293 43.6624 115.057 43.7646 114.759C43.8697 114.46 43.9223 114.121 43.9223 113.74C43.9223 113.359 43.8697 113.02 43.7646 112.722C43.6624 112.423 43.5104 112.187 43.3087 112.014C43.107 111.841 42.8555 111.754 42.5544 111.754C42.2504 111.754 41.9947 111.841 41.7874 112.014C41.5828 112.187 41.428 112.423 41.3229 112.722C41.2206 113.02 41.1695 113.359 41.1695 113.74C41.1695 114.121 41.2206 114.46 41.3229 114.759C41.428 115.057 41.5828 115.293 41.7874 115.466C41.9947 115.636 42.2504 115.722 42.5544 115.722ZM49.7928 115.116L49.797 112.939H50.0612L52.1578 110.455H54.2416L51.4249 113.744H50.9945L49.7928 115.116ZM48.1479 117V108.273H49.9632V117H48.1479ZM52.2388 117L50.3126 114.149L51.5229 112.866L54.3652 117H52.2388ZM59.0457 117.128C58.3724 117.128 57.7928 116.991 57.307 116.719C56.8241 116.443 56.4519 116.054 56.1906 115.551C55.9292 115.045 55.7985 114.447 55.7985 113.757C55.7985 113.084 55.9292 112.493 56.1906 111.984C56.4519 111.476 56.8198 111.08 57.2942 110.795C57.7715 110.511 58.3312 110.369 58.9732 110.369C59.405 110.369 59.807 110.439 60.1792 110.578C60.5542 110.714 60.8809 110.92 61.1593 111.196C61.4406 111.472 61.6593 111.818 61.8156 112.236C61.9718 112.651 62.0499 113.136 62.0499 113.693V114.192H56.5229V113.067H60.3411C60.3411 112.805 60.2843 112.574 60.1707 112.372C60.057 112.17 59.8994 112.013 59.6977 111.899C59.4988 111.783 59.2673 111.724 59.0031 111.724C58.7275 111.724 58.4832 111.788 58.2701 111.916C58.0599 112.041 57.8951 112.21 57.7758 112.423C57.6565 112.634 57.5954 112.868 57.5925 113.126V114.196C57.5925 114.52 57.6522 114.8 57.7715 115.036C57.8937 115.271 58.0656 115.453 58.2871 115.581C58.5087 115.709 58.7715 115.773 59.0755 115.773C59.2772 115.773 59.4619 115.744 59.6295 115.688C59.7971 115.631 59.9406 115.545 60.0599 115.432C60.1792 115.318 60.2701 115.179 60.3326 115.014L62.0116 115.125C61.9264 115.528 61.7516 115.881 61.4874 116.182C61.2261 116.48 60.888 116.713 60.4732 116.881C60.0613 117.045 59.5854 117.128 59.0457 117.128ZM64.4346 117V110.455H66.1647V111.609H66.2414C66.3778 111.226 66.605 110.923 66.9232 110.702C67.2414 110.48 67.6221 110.369 68.0653 110.369C68.5141 110.369 68.8962 110.482 69.2116 110.706C69.5269 110.928 69.7371 111.229 69.8423 111.609H69.9104C70.044 111.234 70.2854 110.935 70.6349 110.71C70.9871 110.483 71.4033 110.369 71.8835 110.369C72.4942 110.369 72.99 110.564 73.3707 110.953C73.7542 111.339 73.946 111.888 73.946 112.598V117H72.1349V112.956C72.1349 112.592 72.0383 112.32 71.8451 112.138C71.6519 111.956 71.4104 111.865 71.1207 111.865C70.7911 111.865 70.534 111.97 70.3494 112.18C70.1647 112.388 70.0724 112.662 70.0724 113.003V117H68.3124V112.918C68.3124 112.597 68.2201 112.341 68.0354 112.151C67.8536 111.96 67.6136 111.865 67.3153 111.865C67.1136 111.865 66.9317 111.916 66.7698 112.018C66.6107 112.118 66.4843 112.259 66.3906 112.44C66.2968 112.619 66.2499 112.83 66.2499 113.071V117H64.4346ZM79.5373 117.128C78.8754 117.128 78.3029 116.987 77.82 116.706C77.3398 116.422 76.9691 116.027 76.7077 115.521C76.4464 115.013 76.3157 114.423 76.3157 113.753C76.3157 113.077 76.4464 112.486 76.7077 111.98C76.9691 111.472 77.3398 111.077 77.82 110.795C78.3029 110.511 78.8754 110.369 79.5373 110.369C80.1992 110.369 80.7702 110.511 81.2504 110.795C81.7333 111.077 82.1055 111.472 82.3668 111.98C82.6282 112.486 82.7589 113.077 82.7589 113.753C82.7589 114.423 82.6282 115.013 82.3668 115.521C82.1055 116.027 81.7333 116.422 81.2504 116.706C80.7702 116.987 80.1992 117.128 79.5373 117.128ZM79.5458 115.722C79.8469 115.722 80.0984 115.636 80.3001 115.466C80.5018 115.293 80.6538 115.057 80.756 114.759C80.8612 114.46 80.9137 114.121 80.9137 113.74C80.9137 113.359 80.8612 113.02 80.756 112.722C80.6538 112.423 80.5018 112.187 80.3001 112.014C80.0984 111.841 79.8469 111.754 79.5458 111.754C79.2418 111.754 78.9862 111.841 78.7788 112.014C78.5742 112.187 78.4194 112.423 78.3143 112.722C78.212 113.02 78.1609 113.359 78.1609 113.74C78.1609 114.121 78.212 114.46 78.3143 114.759C78.4194 115.057 78.5742 115.293 78.7788 115.466C78.9862 115.636 79.2418 115.722 79.5458 115.722ZM86.9546 113.216V117H85.1393V110.455H86.8694V111.609H86.9461C87.091 111.229 87.3339 110.928 87.6748 110.706C88.0157 110.482 88.429 110.369 88.9148 110.369C89.3694 110.369 89.7657 110.469 90.1038 110.668C90.4418 110.866 90.7046 111.151 90.8921 111.52C91.0796 111.886 91.1734 112.324 91.1734 112.832V117H89.358V113.156C89.3609 112.756 89.2586 112.443 89.0512 112.219C88.8438 111.991 88.5583 111.878 88.1947 111.878C87.9504 111.878 87.7344 111.93 87.5469 112.036C87.3623 112.141 87.2174 112.294 87.1123 112.496C87.01 112.695 86.9575 112.935 86.9546 113.216Z" fill="#EA4C4C"/>
<g filter="url(#filter2_d_12_4)">
<path d="M148 20C148 8.9543 156.954 0 168 0H200V32C200 43.0457 191.046 52 180 52H168C156.954 52 148 43.0457 148 32V20Z" fill="url(#paint2_linear_12_4)"/>
<path d="M148 20C148 8.95431 156.954 0 168 0H200V30H148V20Z" fill="#EA4C4C"/>
<path d="M147 23C147 21.8954 147.895 21 149 21H200V30H149C147.895 30 147 29.1046 147 28V23Z" fill="#252525"/>
<rect x="165.36" y="17.01" width="17.28" height="17.28" rx="8.64" fill="#252525"/>
<rect x="167.79" y="19.44" width="12.42" height="12.42" rx="6.21" fill="#D8D8D8"/>
</g>
<defs>
<filter id="filter0_d_12_4" x="27.496" y="84.688" width="53.2806" height="18.432" filterUnits="userSpaceOnUse" color-interpolation-filters="sRGB">
<feFlood flood-opacity="0" result="BackgroundImageFix"/>
<feColorMatrix in="SourceAlpha" type="matrix" values="0 0 0 0 0 0 0 0 0 0 0 0 0 0 0 0 0 0 127 0" result="hardAlpha"/>
<feOffset dy="4"/>
<feGaussianBlur stdDeviation="2"/>
<feComposite in2="hardAlpha" operator="out"/>
<feColorMatrix type="matrix" values="0 0 0 0 0 0 0 0 0 0 0 0 0 0 0 0 0 0 0.25 0"/>
<feBlend mode="normal" in2="BackgroundImageFix" result="effect1_dropShadow_12_4"/>
<feBlend mode="normal" in="SourceGraphic" in2="effect1_dropShadow_12_4" result="shape"/>
</filter>
<filter id="filter1_d_12_4" x="27.496" y="45.68" width="21.5161" height="18.32" filterUnits="userSpaceOnUse" color-interpolation-filters="sRGB">
<feFlood flood-opacity="0" result="BackgroundImageFix"/>
<feColorMatrix in="SourceAlpha" type="matrix" values="0 0 0 0 0 0 0 0 0 0 0 0 0 0 0 0 0 0 127 0" result="hardAlpha"/>
<feOffset dy="4"/>
<feGaussianBlur stdDeviation="2"/>
<feComposite in2="hardAlpha" operator="out"/>
<feColorMatrix type="matrix" values="0 0 0 0 0 0 0 0 0 0 0 0 0 0 0 0 0 0 0.25 0"/>
<feBlend mode="normal" in2="BackgroundImageFix" result="effect1_dropShadow_12_4"/>
<feBlend mode="normal" in="SourceGraphic" in2="effect1_dropShadow_12_4" result="shape"/>
</filter>
<filter id="filter2_d_12_4" x="143" y="0" width="61" height="60" filterUnits="userSpaceOnUse" color-interpolation-filters="sRGB">
<feFlood flood-opacity="0" result="BackgroundImageFix"/>
<feColorMatrix in="SourceAlpha" type="matrix" values="0 0 0 0 0 0 0 0 0 0 0 0 0 0 0 0 0 0 127 0" result="hardAlpha"/>
<feOffset dy="4"/>
<feGaussianBlur stdDeviation="2"/>
<feComposite in2="hardAlpha" operator="out"/>
<feColorMatrix type="matrix" values="0 0 0 0 0 0 0 0 0 0 0 0 0 0 0 0 0 0 0.25 0"/>
<feBlend mode="normal" in2="BackgroundImageFix" result="effect1_dropShadow_12_4"/>
<feBlend mode="normal" in="SourceGraphic" in2="effect1_dropShadow_12_4" result="shape"/>
</filter>
<linearGradient id="paint0_linear_12_4" x1="200" y1="-7.58917e-08" x2="-4.26949e-06" y2="367" gradientUnits="userSpaceOnUse">
<stop stop-color="#888888"/>
<stop offset="1" stop-color="#252525"/>
</linearGradient>
<linearGradient id="paint1_linear_12_4" x1="210" y1="215" x2="805" y2="215" gradientUnits="userSpaceOnUse">
<stop stop-color="#EA4C4C"/>
<stop offset="1" stop-color="#252525"/>
</linearGradient>
<linearGradient id="paint2_linear_12_4" x1="200" y1="0" x2="148" y2="52" gradientUnits="userSpaceOnUse">
<stop offset="0.270833" stop-color="#D7D7D7"/>
<stop offset="0.8125" stop-color="#888888"/>
</linearGradient>
</defs>
</svg>
